<?xml version="1.0" encoding="utf-8"?>
<!-- Generator: Adobe Illustrator 16.0.3, SVG Export Plug-In . SVG Version: 6.00 Build 0)  -->
<!DOCTYPE svg PUBLIC "-//W3C//DTD SVG 1.1//EN" "http://www.w3.org/Graphics/SVG/1.1/DTD/svg11.dtd">
<svg version="1.1" id="Layer_1" xmlns="http://www.w3.org/2000/svg" xmlns:xlink="http://www.w3.org/1999/xlink" x="0px" y="0px"
	 width="20px" height="20px" viewBox="0 0 187.159 190.506" enable-background="new 0 0 187.159 190.506"
	 xml:space="preserve">
<g id="Dz6wSq_1_">
	<g>
	</g>
</g>
<path fill-rule="evenodd" clip-rule="evenodd" d="M139.742,138.403c1.003,0.472,2.164,0.755,2.984,1.444
	c14.154,11.895,28.26,23.846,42.412,35.743c0.49,0.413,1.339,0.398,2.021,0.583c-0.391,0.544-0.78,1.088-1.17,1.632
	c-17.566-4.861-35.135-9.717-52.699-14.587c-17.593-4.877-35.182-9.768-53.983-14.989c2.021,5.394,5.089,8.826,7.565,12.566
	c2.455,3.709,5.071,7.311,6.934,11.619c-11.296-10.383-22.592-20.767-34.496-31.708c-14.384,16.814-28.491,33.307-42.599,49.799
	c-0.241-0.099-0.481-0.198-0.722-0.297c0.201-1.17,0.315-2.363,0.616-3.507c8.567-32.491,17.156-64.977,25.727-97.468
	c0.58-2.198,1.431-4.438-0.453-7.406c-6.641,4.801-13.131,9.494-19.622,14.188c-0.243-0.26-0.485-0.519-0.728-0.777
	c12.159-14.796,24.317-29.591,36.476-44.387c0.314,0.13,0.628,0.26,0.942,0.391c-0.616,4.358-1.232,8.716-1.955,13.825
	c16.347,0.952,32.368,1.886,48.879,2.848c-1.408-4.307-5.895-4.662-8.098-8.083c2.062-0.666,3.977-1.283,5.957-1.921
	c0.467-3.216-2.031-3.122-3.764-3.558c-7.266-1.826-14.57-3.499-21.844-5.297C64.395,45.663,50.681,42.209,36.95,38.82
	c-1.118-0.276-2.311-0.247-3.469-0.36c-0.168,0.354-0.336,0.708-0.504,1.062c3.089,4.036,6.179,8.072,9.354,12.221
	C38.871,50.524,8.619,24.181,0,14.417c36.398,9.851,72.504,20.733,109.48,31.641c-0.82-1.686-1.221-2.851-1.893-3.83
	c-3.486-5.08-7.076-10.09-10.552-15.177c-0.819-1.2-1.339-2.604-1.997-3.915l-0.105,0.093c4.176,3.495,8.434,6.895,12.509,10.502
	c10.786,9.548,21.501,19.178,32.217,28.805c0.83,0.746,1.454,1.723,2.173,2.592l0.123-0.107c-1.287-0.119-2.619-0.063-3.854-0.385
	c-6.604-1.724-13.178-3.555-19.771-5.317c-1.545-0.414-3.123-0.704-4.716-1.058c-0.599,5.328,0.446,7.014,6.039,10.053
	c0.771-0.691,1.635-1.421,2.444-2.208c0.783-0.762,1.509-1.583,2.995-3.156c-0.672,17.047-1.303,33.037-1.956,49.625
	c3.201-1.142,3.842-3.48,4.93-5.383c1.037-1.815,1.979-3.688,3.381-6.321c1.43,3.478,2.482,6.04,3.602,8.762
	c1.869-2.943,14.568-65.226,14.576-72.021c-5.269,4.629-10.026,8.809-14.785,12.989c-0.271-0.233-0.545-0.466-0.818-0.7
	C147,33.267,159.978,16.633,172.956,0c0.314,0.09,0.629,0.181,0.943,0.271c-0.227,1.287-0.36,2.599-0.693,3.857
	c-9.267,35.067-18.56,70.128-27.814,105.199c-0.364,1.378-0.394,2.844-0.745,5.548c8.613-5.367,14.762-12.024,22.354-17.105
	c-1.577,4.045-32.833,41.477-37.323,44.477c1.242-7.227,2.396-13.892,3.527-20.56c0.25-1.476,0.783-3.031,0.531-4.432
	c-0.324-1.809-1.307-3.498-2.043-5.328c-3.947,2.383-5.375,4.683-8.045,12.96c1.514,0.972,3.557,2.283,5.6,3.595
	c-0.244,0.456-0.488,0.912-0.732,1.368c-15.318-1.151-30.637-2.304-47.305-3.557c1.596,1.964,2.467,3.168,3.477,4.241
	c1.017,1.08,2.171,2.031,3.606,3.354c-2.028,1.05-3.774,1.953-6.526,3.377c1.917,1.279,2.93,2.412,4.143,2.697
	c20.407,4.8,40.837,9.498,61.271,14.186c0.426,0.098,0.941-0.197,1.842-0.409c-3.125-5.26-6.151-10.353-9.178-15.446
	L139.742,138.403z M70.909,76.126c1.1,15.458,2.144,30.124,3.213,45.159c15.196-1.437,29.697-2.807,44.666-4.222
	c-1.054-14.822-2.062-29.016-3.111-43.794C100.666,74.227,86.136,75.154,70.909,76.126z M58.259,140.436
	c-3.275-3.387-6.228-6.439-9.181-9.492c0.197-0.232,0.394-0.465,0.59-0.698c4.126,0.935,8.253,1.868,12.875,2.915
	c0.713-16.604,1.398-32.562,2.084-48.521c-0.271-0.113-0.542-0.227-0.813-0.339c-2.287,3.225-4.573,6.45-7.197,10.152
	c-1.529-3.561-2.688-6.257-3.987-9.281c-2.607,5.964-14.906,68.359-14.109,72.449C45.62,152.294,51.695,146.346,58.259,140.436z
	 M56.234,65.836c-1.083,4.718-1.924,8.386-2.75,11.99c1.31,1.689,2.386,3.075,3.844,4.956c2.583-3.732,4.798-6.935,7.251-10.479
	C61.781,70.134,59.36,68.258,56.234,65.836z M70.254,126.888c-2.271,2.439-4.173,4.483-6.693,7.191
	c4.728,1.08,8.356,1.908,12.381,2.827c0.663-1.739,1.209-3.176,1.845-4.845C75.239,130.312,72.963,128.749,70.254,126.888z"/>
</svg>
